<svg width="48" height="49" viewBox="0 0 48 49" fill="none" xmlns="http://www.w3.org/2000/svg">
<rect y="0.5" width="48" height="48" rx="8" fill="#070707"/>
<path d="M24 14C21.8127 14.0025 19.7157 14.8725 18.1691 16.4191C16.6225 17.9657 15.7525 20.0627 15.75 22.25C15.75 29.3094 23.25 34.6409 23.5697 34.8641C23.6958 34.9524 23.846 34.9998 24 34.9998C24.154 34.9998 24.3042 34.9524 24.4303 34.8641C24.75 34.6409 32.25 29.3094 32.25 22.25C32.2475 20.0627 31.3775 17.9657 29.8309 16.4191C28.2843 14.8725 26.1873 14.0025 24 14ZM24 19.25C24.5933 19.25 25.1734 19.4259 25.6667 19.7556C26.1601 20.0852 26.5446 20.5538 26.7716 21.1019C26.9987 21.6501 27.0581 22.2533 26.9424 22.8353C26.8266 23.4172 26.5409 23.9518 26.1213 24.3713C25.7018 24.7909 25.1672 25.0766 24.5853 25.1924C24.0033 25.3081 23.4001 25.2487 22.8519 25.0216C22.3038 24.7946 21.8352 24.4101 21.5056 23.9167C21.1759 23.4234 21 22.8433 21 22.25C21 21.4544 21.3161 20.6913 21.8787 20.1287C22.4413 19.5661 23.2044 19.25 24 19.25Z" fill="#FCFCFC"/>
</svg>
