<svg width="48" height="49" viewBox="0 0 48 49" fill="none" xmlns="http://www.w3.org/2000/svg">
<rect y="0.5" width="48" height="48" rx="8" fill="#FCFCFC"/>
<path d="M33 17H15C14.8011 17 14.6103 17.079 14.4697 17.2197C14.329 17.3603 14.25 17.5511 14.25 17.75V30.5C14.25 30.8978 14.408 31.2794 14.6893 31.5607C14.9706 31.842 15.3522 32 15.75 32H32.25C32.6478 32 33.0294 31.842 33.3107 31.5607C33.592 31.2794 33.75 30.8978 33.75 30.5V17.75C33.75 17.5511 33.671 17.3603 33.5303 17.2197C33.3897 17.079 33.1989 17 33 17ZM32.25 30.5H15.75V19.4553L23.4928 26.5531C23.6312 26.6801 23.8122 26.7506 24 26.7506C24.1878 26.7506 24.3688 26.6801 24.5072 26.5531L32.25 19.4553V30.5Z" fill="#070707"/>
</svg>
