<svg width="48" height="49" viewBox="0 0 48 49" fill="none" xmlns="http://www.w3.org/2000/svg">
<rect y="0.5" width="48" height="48" rx="8" fill="#070707"/>
<path d="M33.7388 28.9137C33.5716 30.1841 32.9477 31.3501 31.9837 32.1941C31.0196 33.0381 29.7813 33.5023 28.5 33.5C21.0563 33.5 15 27.4437 15 20C14.9977 18.7187 15.4619 17.4804 16.3059 16.5163C17.1499 15.5523 18.3159 14.9284 19.5863 14.7612C19.9075 14.722 20.2328 14.7877 20.5136 14.9486C20.7944 15.1094 21.0157 15.3568 21.1444 15.6537L23.1244 20.0741V20.0853C23.2229 20.3126 23.2636 20.5608 23.2428 20.8076C23.222 21.0545 23.1404 21.2924 23.0053 21.5C22.9884 21.5253 22.9706 21.5487 22.9519 21.5722L21 23.8859C21.7022 25.3128 23.1947 26.7922 24.6403 27.4962L26.9222 25.5547C26.9446 25.5358 26.9681 25.5183 26.9925 25.5022C27.2 25.3638 27.4387 25.2793 27.687 25.2564C27.9353 25.2335 28.1854 25.2729 28.4147 25.3709L28.4269 25.3766L32.8434 27.3556C33.1409 27.4838 33.3889 27.7049 33.5503 27.9858C33.7116 28.2666 33.7778 28.5922 33.7388 28.9137Z" fill="#FCFCFC"/>
</svg>
