<svg width="20" height="20" viewBox="0 0 20 20" fill="none" xmlns="http://www.w3.org/2000/svg">
<path d="M18.3039 8.97262L14.7883 12.0062L15.8594 16.5429C15.9185 16.7892 15.9033 17.0475 15.8156 17.2851C15.728 17.5227 15.572 17.7291 15.3671 17.8781C15.1623 18.027 14.9179 18.112 14.6649 18.1221C14.4118 18.1323 14.1614 18.0672 13.9453 17.9351L10 15.507L6.05234 17.9351C5.83627 18.0664 5.58617 18.1309 5.33354 18.1204C5.08091 18.1098 4.83705 18.0248 4.63265 17.8759C4.42826 17.7271 4.27248 17.5211 4.18492 17.2839C4.09737 17.0467 4.08195 16.7889 4.14062 16.5429L5.21562 12.0062L1.7 8.97262C1.50882 8.80739 1.37056 8.58951 1.30248 8.34617C1.2344 8.10284 1.23952 7.84484 1.3172 7.60439C1.39487 7.36395 1.54166 7.15172 1.73924 6.9942C1.93681 6.83669 2.17642 6.74087 2.42812 6.71871L7.0375 6.34684L8.81562 2.04371C8.91187 1.8092 9.07568 1.6086 9.28622 1.46742C9.49677 1.32624 9.74454 1.25085 9.99804 1.25085C10.2515 1.25085 10.4993 1.32624 10.7099 1.46742C10.9204 1.6086 11.0842 1.8092 11.1805 2.04371L12.9578 6.34684L17.5672 6.71871C17.8194 6.74004 18.0597 6.83533 18.258 6.99262C18.4563 7.14992 18.6037 7.36224 18.6819 7.60298C18.7601 7.84371 18.7654 8.10216 18.6974 8.34594C18.6293 8.58972 18.4908 8.80799 18.2992 8.9734L18.3039 8.97262Z" fill="#F9BB01"/>
</svg>
