<svg width="101" height="13" viewBox="0 0 101 13" fill="none" xmlns="http://www.w3.org/2000/svg">
<path d="M5.52322 7.72C4.94722 7.72 4.49922 7.544 4.17922 7.192C3.85922 6.84 3.69922 6.352 3.69922 5.728C3.69922 5.088 3.86322 4.596 4.19122 4.252C4.52722 3.9 4.98722 3.724 5.57122 3.724C5.76322 3.724 5.94722 3.744 6.12322 3.784C6.30722 3.816 6.48722 3.872 6.66322 3.952L6.45922 4.552C6.30722 4.488 6.15522 4.44 6.00322 4.408C5.85922 4.376 5.71122 4.36 5.55922 4.36C5.20722 4.36 4.93922 4.476 4.75522 4.708C4.57922 4.932 4.49122 5.272 4.49122 5.728C4.49122 6.16 4.57922 6.496 4.75522 6.736C4.93122 6.968 5.18722 7.084 5.52322 7.084C5.68322 7.084 5.85122 7.064 6.02722 7.024C6.21122 6.976 6.40322 6.912 6.60322 6.832V7.48C6.41122 7.56 6.22722 7.62 6.05122 7.66C5.87522 7.7 5.69922 7.72 5.52322 7.72ZM5.19922 10.66C4.51922 10.66 3.87922 10.532 3.27922 10.276C2.67922 10.02 2.15122 9.668 1.69522 9.22C1.24722 8.764 0.895219 8.236 0.639219 7.636C0.383219 7.036 0.255219 6.396 0.255219 5.716C0.255219 5.028 0.383219 4.388 0.639219 3.796C0.895219 3.196 1.24722 2.672 1.69522 2.224C2.15122 1.768 2.67922 1.412 3.27922 1.156C3.87922 0.899999 4.51922 0.771999 5.19922 0.771999C5.88722 0.771999 6.52722 0.899999 7.11922 1.156C7.71922 1.412 8.24322 1.768 8.69122 2.224C9.14722 2.672 9.50322 3.196 9.75922 3.796C10.0152 4.388 10.1432 5.028 10.1432 5.716C10.1432 6.396 10.0152 7.036 9.75922 7.636C9.50322 8.236 9.14722 8.764 8.69122 9.22C8.24322 9.668 7.71922 10.02 7.11922 10.276C6.52722 10.532 5.88722 10.66 5.19922 10.66ZM5.19922 9.988C5.79122 9.988 6.34322 9.88 6.85522 9.664C7.37522 9.44 7.83122 9.132 8.22322 8.74C8.61522 8.348 8.91922 7.896 9.13522 7.384C9.35922 6.864 9.47122 6.308 9.47122 5.716C9.47122 5.124 9.35922 4.572 9.13522 4.06C8.91922 3.54 8.61522 3.084 8.22322 2.692C7.83122 2.3 7.37522 1.996 6.85522 1.78C6.34322 1.556 5.79122 1.444 5.19922 1.444C4.60722 1.444 4.05122 1.556 3.53122 1.78C3.01922 1.996 2.56722 2.3 2.17522 2.692C1.78322 3.084 1.47522 3.54 1.25122 4.06C1.03522 4.572 0.927219 5.124 0.927219 5.716C0.927219 6.308 1.03522 6.864 1.25122 7.384C1.47522 7.896 1.78322 8.348 2.17522 8.74C2.56722 9.132 3.01922 9.44 3.53122 9.664C4.05122 9.88 4.60722 9.988 5.19922 9.988ZM21.0262 7.456C21.1542 7.432 21.2822 7.432 21.4102 7.456V9.592C21.0822 9.76 20.6942 9.9 20.2462 10.012C19.8062 10.124 19.3022 10.18 18.7342 10.18C17.8222 10.18 17.0382 9.996 16.3822 9.628C15.7262 9.26 15.2222 8.748 14.8702 8.092C14.5182 7.436 14.3422 6.672 14.3422 5.8C14.3422 4.928 14.5222 4.164 14.8822 3.508C15.2422 2.852 15.7542 2.34 16.4182 1.972C17.0902 1.604 17.8862 1.42 18.8062 1.42C19.3022 1.42 19.7582 1.472 20.1742 1.576C20.5982 1.672 20.9702 1.8 21.2902 1.96V4.108C21.1622 4.132 21.0342 4.132 20.9062 4.108C20.7782 3.34 20.5382 2.784 20.1862 2.44C19.8422 2.096 19.3502 1.924 18.7102 1.924C18.2302 1.924 17.8222 2.024 17.4862 2.224C17.1502 2.416 16.8742 2.684 16.6582 3.028C16.4502 3.364 16.2982 3.76 16.2022 4.216C16.1142 4.664 16.0702 5.14 16.0702 5.644C16.0702 6.148 16.1142 6.64 16.2022 7.12C16.2982 7.592 16.4462 8.024 16.6462 8.416C16.8542 8.8 17.1302 9.108 17.4742 9.34C17.8182 9.564 18.2462 9.676 18.7582 9.676C19.1502 9.676 19.5022 9.6 19.8142 9.448C20.1342 9.288 20.3982 9.044 20.6062 8.716C20.8222 8.388 20.9622 7.968 21.0262 7.456ZM25.3385 4.924C25.0505 4.924 24.8105 5.012 24.6185 5.188C24.4265 5.356 24.2825 5.608 24.1865 5.944C24.0905 6.28 24.0425 6.688 24.0425 7.168C24.0425 7.688 24.0945 8.14 24.1985 8.524C24.3025 8.9 24.4585 9.192 24.6665 9.4C24.8745 9.6 25.1385 9.7 25.4585 9.7L25.3985 10.18C24.8545 10.18 24.3705 10.068 23.9465 9.844C23.5225 9.612 23.1865 9.28 22.9385 8.848C22.6985 8.408 22.5785 7.884 22.5785 7.276C22.5785 6.692 22.6985 6.188 22.9385 5.764C23.1785 5.34 23.5105 5.016 23.9345 4.792C24.3585 4.56 24.8465 4.444 25.3985 4.444L25.3385 4.924ZM25.4585 9.7C25.7545 9.7 25.9945 9.612 26.1785 9.436C26.3705 9.26 26.5145 9.004 26.6105 8.668C26.7065 8.332 26.7545 7.924 26.7545 7.444C26.7545 6.924 26.7025 6.476 26.5985 6.1C26.4945 5.724 26.3385 5.436 26.1305 5.236C25.9225 5.028 25.6585 4.924 25.3385 4.924L25.3985 4.444C25.9425 4.444 26.4265 4.56 26.8505 4.792C27.2745 5.016 27.6065 5.344 27.8465 5.776C28.0945 6.208 28.2185 6.728 28.2185 7.336C28.2185 7.92 28.0985 8.428 27.8585 8.86C27.6265 9.284 27.2985 9.612 26.8745 9.844C26.4505 10.068 25.9585 10.18 25.3985 10.18L25.4585 9.7ZM29.0425 12.544C29.0105 12.392 29.0105 12.244 29.0425 12.1H29.7025C29.7425 11.812 29.7705 11.52 29.7865 11.224C29.8105 10.936 29.8225 10.632 29.8225 10.312V6.832C29.8225 6.2 29.7825 5.612 29.7025 5.068H29.1025C29.0705 4.916 29.0705 4.768 29.1025 4.624C29.4625 4.624 29.8025 4.612 30.1225 4.588C30.4505 4.564 30.7905 4.52 31.1425 4.456C31.1025 4.584 31.0745 4.74 31.0585 4.924C31.0425 5.1 31.0305 5.26 31.0225 5.404L31.1425 5.944V10.312C31.1425 10.632 31.1505 10.936 31.1665 11.224C31.1905 11.52 31.2225 11.812 31.2625 12.1H32.1625C32.1945 12.244 32.1945 12.392 32.1625 12.544C31.8345 12.528 31.5305 12.52 31.2505 12.52C30.9705 12.52 30.7145 12.52 30.4825 12.52C30.2585 12.52 30.0265 12.52 29.7865 12.52C29.5545 12.52 29.3065 12.528 29.0425 12.544ZM32.8105 4.444C33.2665 4.444 33.6745 4.544 34.0345 4.744C34.3945 4.944 34.6785 5.252 34.8865 5.668C35.1025 6.076 35.2105 6.596 35.2105 7.228C35.2105 7.86 35.0905 8.396 34.8505 8.836C34.6105 9.276 34.2785 9.612 33.8545 9.844C33.4305 10.068 32.9305 10.18 32.3545 10.18C31.8185 10.18 31.3785 10.092 31.0345 9.916C30.6905 9.74 30.3825 9.52 30.1105 9.256L31.1425 8.272C31.1425 8.664 31.2065 8.964 31.3345 9.172C31.4705 9.372 31.6305 9.512 31.8145 9.592C32.0065 9.664 32.1825 9.7 32.3425 9.7C32.7745 9.7 33.1145 9.504 33.3625 9.112C33.6185 8.712 33.7465 8.12 33.7465 7.336C33.7465 6.552 33.6305 5.968 33.3985 5.584C33.1665 5.2 32.8505 5.008 32.4505 5.008C32.1705 5.008 31.9265 5.092 31.7185 5.26C31.5185 5.428 31.3265 5.656 31.1425 5.944L31.0225 5.404C31.1905 5.132 31.4265 4.904 31.7305 4.72C32.0345 4.536 32.3945 4.444 32.8105 4.444ZM38.4503 9.94C37.9863 9.94 37.6223 9.848 37.3583 9.664C37.0943 9.48 36.8903 9.224 36.7463 8.896C36.7703 8.776 36.7823 8.648 36.7823 8.512C36.7903 8.368 36.7943 8.236 36.7943 8.116V6.832C36.7943 6.2 36.7543 5.612 36.6743 5.068H36.1103C36.0783 4.916 36.0783 4.768 36.1103 4.624C36.4863 4.624 36.8503 4.612 37.2023 4.588C37.5623 4.564 37.9263 4.52 38.2943 4.456C38.2463 4.64 38.2103 4.88 38.1863 5.176C38.1623 5.464 38.1423 5.76 38.1263 6.064C38.1183 6.36 38.1143 6.616 38.1143 6.832V8.176C38.1143 8.488 38.1783 8.752 38.3063 8.968C38.4343 9.184 38.6583 9.292 38.9783 9.292C39.2503 9.292 39.4903 9.22 39.6983 9.076C39.9063 8.932 40.0943 8.72 40.2623 8.44V9.112C40.1423 9.272 40.0023 9.416 39.8423 9.544C39.6823 9.664 39.4903 9.76 39.2663 9.832C39.0423 9.904 38.7703 9.94 38.4503 9.94ZM39.5303 4.624C39.9063 4.624 40.2783 4.612 40.6463 4.588C41.0143 4.564 41.3863 4.52 41.7623 4.456C41.7143 4.64 41.6783 4.88 41.6543 5.176C41.6303 5.464 41.6103 5.76 41.5943 6.064C41.5863 6.36 41.5823 6.616 41.5823 6.832V9.028C41.5823 9.788 41.4343 10.44 41.1383 10.984C40.8423 11.536 40.4463 11.96 39.9503 12.256C39.4623 12.552 38.9143 12.7 38.3063 12.7C37.6663 12.7 37.1583 12.572 36.7823 12.316C36.4063 12.068 36.2183 11.716 36.2183 11.26C36.2183 10.876 36.3503 10.552 36.6143 10.288C36.8783 10.032 37.2383 9.808 37.6943 9.616L38.0663 9.82C37.7703 9.988 37.5663 10.188 37.4543 10.42C37.3423 10.652 37.2863 10.904 37.2863 11.176C37.2863 11.496 37.3703 11.748 37.5383 11.932C37.7143 12.124 38.0023 12.22 38.4023 12.22C38.8423 12.22 39.1983 12.1 39.4703 11.86C39.7423 11.62 39.9423 11.308 40.0703 10.924C40.1983 10.54 40.2623 10.136 40.2623 9.712V6.832C40.2623 6.2 40.2223 5.612 40.1423 5.068H39.5303C39.4983 4.916 39.4983 4.768 39.5303 4.624ZM42.9317 10.024C42.8997 9.872 42.8997 9.724 42.9317 9.58H43.5917C43.6317 9.292 43.6597 9.004 43.6757 8.716C43.6997 8.42 43.7117 8.112 43.7117 7.792V6.832C43.7117 6.2 43.6717 5.612 43.5917 5.068H42.9917C42.9597 4.916 42.9597 4.768 42.9917 4.624C43.3517 4.624 43.6917 4.612 44.0117 4.588C44.3317 4.564 44.6717 4.52 45.0317 4.456C44.9917 4.584 44.9597 4.744 44.9357 4.936C44.9197 5.12 44.9117 5.324 44.9117 5.548L45.0317 6.136V7.792C45.0317 8.112 45.0397 8.42 45.0557 8.716C45.0797 9.004 45.1117 9.292 45.1517 9.58H46.1597C46.1917 9.724 46.1917 9.872 46.1597 10.024C45.7277 10.008 45.3757 10 45.1037 10C44.8397 10 44.5957 10 44.3717 10C44.1477 10 43.9157 10 43.6757 10C43.4437 10 43.1957 10.008 42.9317 10.024ZM46.4357 6.124C46.4677 5.812 46.4517 5.572 46.3877 5.404C46.3317 5.228 46.2117 5.14 46.0277 5.14C45.8517 5.14 45.6837 5.22 45.5237 5.38C45.3637 5.54 45.1997 5.792 45.0317 6.136L44.9117 5.548C45.1037 5.188 45.3277 4.916 45.5837 4.732C45.8477 4.54 46.1757 4.444 46.5677 4.444C46.9117 4.444 47.1757 4.512 47.3597 4.648C47.5437 4.784 47.6677 4.976 47.7317 5.224C47.7957 5.472 47.8157 5.772 47.7917 6.124H46.4357ZM51.4035 9.58C51.4355 9.724 51.4355 9.872 51.4035 10.024C51.1315 10.008 50.8715 10 50.6235 10C50.3755 10 50.1395 10 49.9155 10C49.6915 10 49.4555 10 49.2075 10C48.9595 10 48.6955 10.008 48.4155 10.024C48.3835 9.872 48.3835 9.724 48.4155 9.58H49.1355C49.1755 9.292 49.2035 9.004 49.2195 8.716C49.2435 8.42 49.2555 8.112 49.2555 7.792V6.832C49.2555 6.2 49.2155 5.612 49.1355 5.068H48.4755C48.4435 4.916 48.4435 4.768 48.4755 4.624C48.8515 4.624 49.2315 4.612 49.6155 4.588C49.9995 4.564 50.3795 4.52 50.7555 4.456C50.7075 4.64 50.6715 4.88 50.6475 5.176C50.6235 5.464 50.6035 5.76 50.5875 6.064C50.5795 6.36 50.5755 6.616 50.5755 6.832V7.792C50.5755 8.112 50.5835 8.42 50.5995 8.716C50.6235 9.004 50.6555 9.292 50.6955 9.58H51.4035ZM49.9155 1.864L50.6475 2.26V3.124L49.9155 3.52L49.1835 3.124V2.26L49.9155 1.864ZM54.7592 8.332C55.1272 8.332 55.4072 8.188 55.5992 7.9C55.7912 7.612 55.8872 7.192 55.8872 6.64C55.8872 6.088 55.7912 5.66 55.5992 5.356C55.4072 5.044 55.1272 4.888 54.7592 4.888C54.3912 4.888 54.1112 5.044 53.9192 5.356C53.7352 5.66 53.6432 6.088 53.6432 6.64C53.6432 7.192 53.7352 7.612 53.9192 7.9C54.1112 8.188 54.3912 8.332 54.7592 8.332ZM51.9992 10.996C51.9992 10.852 52.0072 10.728 52.0232 10.624C52.0472 10.52 52.0752 10.44 52.1072 10.384H53.9192C53.9512 10.528 53.9512 10.676 53.9192 10.828C53.8232 10.82 53.7392 10.816 53.6672 10.816C53.5952 10.816 53.5192 10.816 53.4392 10.816C53.4232 10.848 53.4072 10.904 53.3912 10.984C53.3752 11.064 53.3672 11.16 53.3672 11.272C53.3672 11.64 53.4992 11.888 53.7632 12.016C54.0272 12.152 54.4112 12.22 54.9152 12.22C55.3872 12.22 55.7672 12.136 56.0552 11.968C56.3432 11.8 56.4872 11.512 56.4872 11.104C56.4872 10.856 56.4352 10.652 56.3312 10.492C56.2352 10.34 56.0672 10.22 55.8272 10.132C55.5952 10.044 55.2632 9.976 54.8312 9.928C54.4232 9.88 54.0592 9.8 53.7392 9.688C53.4192 9.576 53.1472 9.412 52.9232 9.196C52.6992 8.98 52.5272 8.696 52.4072 8.344C52.2952 7.984 52.2392 7.54 52.2392 7.012C52.2392 6.156 52.4552 5.516 52.8872 5.092C53.3192 4.66 53.9432 4.444 54.7592 4.444C55.1032 4.444 55.4472 4.476 55.7912 4.54C56.1352 4.596 56.4592 4.624 56.7632 4.624C56.9632 4.624 57.1592 4.612 57.3512 4.588C57.5512 4.564 57.6992 4.536 57.7952 4.504C57.8272 4.816 57.8272 5.128 57.7952 5.44C57.6432 5.304 57.4752 5.212 57.2912 5.164C57.1152 5.108 56.8992 5.076 56.6432 5.068C56.8512 5.26 57.0112 5.492 57.1232 5.764C57.2352 6.036 57.2912 6.332 57.2912 6.652C57.2912 7.076 57.1912 7.452 56.9912 7.78C56.7912 8.1 56.5112 8.348 56.1512 8.524C55.7992 8.692 55.3912 8.776 54.9272 8.776C54.5592 8.776 54.2552 8.716 54.0152 8.596C53.7752 8.468 53.5752 8.264 53.4152 7.984C53.4232 8.352 53.4832 8.636 53.5952 8.836C53.7072 9.036 53.8992 9.18 54.1712 9.268C54.4432 9.356 54.8192 9.428 55.2992 9.484C55.6592 9.524 55.9952 9.572 56.3072 9.628C56.6272 9.676 56.9072 9.752 57.1472 9.856C57.3952 9.96 57.5912 10.104 57.7352 10.288C57.8792 10.472 57.9512 10.712 57.9512 11.008C57.9512 11.392 57.8272 11.708 57.5792 11.956C57.3312 12.204 56.9792 12.388 56.5232 12.508C56.0752 12.636 55.5432 12.7 54.9272 12.7C54.0152 12.7 53.2992 12.564 52.7792 12.292C52.2592 12.028 51.9992 11.596 51.9992 10.996ZM61.3723 9.58C61.4043 9.724 61.4043 9.872 61.3723 10.024C61.1163 10.008 60.8683 10 60.6283 10C60.3963 10 60.1683 10 59.9443 10C59.7203 10 59.4883 10 59.2483 10C59.0163 10 58.7683 10.008 58.5043 10.024C58.4723 9.872 58.4723 9.724 58.5043 9.58H59.1643C59.2043 9.292 59.2323 9.004 59.2483 8.716C59.2723 8.42 59.2843 8.112 59.2843 7.792V3.808C59.2843 3.176 59.2443 2.588 59.1643 2.044H58.5043C58.4723 1.892 58.4723 1.744 58.5043 1.6C58.8643 1.6 59.2403 1.588 59.6323 1.564C60.0243 1.54 60.4083 1.496 60.7843 1.432C60.7363 1.624 60.7003 1.864 60.6763 2.152C60.6523 2.44 60.6323 2.736 60.6163 3.04C60.6083 3.336 60.6043 3.592 60.6043 3.808V7.792C60.6043 8.112 60.6123 8.42 60.6283 8.716C60.6523 9.004 60.6843 9.292 60.7243 9.58H61.3723ZM62.0803 10.024C62.0483 9.872 62.0483 9.724 62.0803 9.58H62.7403C62.7803 9.292 62.8083 9.004 62.8243 8.716C62.8483 8.42 62.8603 8.112 62.8603 7.792V6.196C62.8603 5.884 62.7923 5.624 62.6563 5.416C62.5283 5.2 62.2883 5.092 61.9363 5.092C61.6563 5.092 61.4043 5.164 61.1803 5.308C60.9563 5.452 60.7603 5.664 60.5923 5.944L60.4723 5.404C60.6723 5.116 60.9363 4.884 61.2643 4.708C61.6003 4.532 62.0083 4.444 62.4883 4.444C62.9683 4.444 63.3403 4.536 63.6043 4.72C63.8683 4.904 64.0763 5.16 64.2283 5.488C64.2123 5.608 64.2003 5.736 64.1923 5.872C64.1843 6.008 64.1803 6.136 64.1803 6.256V7.792C64.1803 8.112 64.1883 8.42 64.2043 8.716C64.2283 9.004 64.2603 9.292 64.3003 9.58H64.9603C64.9923 9.724 64.9923 9.872 64.9603 10.024C64.6963 10.008 64.4443 10 64.2043 10C63.9723 10 63.7443 10 63.5203 10C63.2963 10 63.0643 10 62.8243 10C62.5923 10 62.3443 10.008 62.0803 10.024ZM67.8855 10.18C67.4215 10.18 67.0535 10.084 66.7815 9.892C66.5095 9.692 66.3735 9.348 66.3735 8.86V6.28C66.3735 6.04 66.3695 5.78 66.3615 5.5C66.3615 5.22 66.3535 4.94 66.3375 4.66C66.3215 4.38 66.2975 4.116 66.2655 3.868C66.4175 3.82 66.5695 3.752 66.7215 3.664C66.8735 3.568 67.0055 3.46 67.1175 3.34C67.2375 3.212 67.3215 3.08 67.3695 2.944C67.4975 2.92 67.6255 2.92 67.7535 2.944C67.7215 3.504 67.7015 4.064 67.6935 4.624C67.6855 5.176 67.6815 5.732 67.6815 6.292V8.824C67.6815 9.112 67.7255 9.312 67.8135 9.424C67.9095 9.536 68.0415 9.592 68.2095 9.592C68.3215 9.592 68.4375 9.564 68.5575 9.508C68.6855 9.452 68.7975 9.372 68.8935 9.268C68.9575 9.308 69.0135 9.356 69.0615 9.412C69.1175 9.468 69.1655 9.528 69.2055 9.592C69.0615 9.76 68.8895 9.9 68.6895 10.012C68.4895 10.124 68.2215 10.18 67.8855 10.18ZM65.5335 5.128C65.5015 4.952 65.5015 4.784 65.5335 4.624H69.0615C69.0935 4.784 69.0935 4.952 69.0615 5.128H65.5335ZM78.0687 10H73.8087C73.5927 10 73.3807 10 73.1727 10C72.9727 10 72.7567 10.008 72.5247 10.024C72.5007 9.824 72.5007 9.624 72.5247 9.424L74.8407 7.264C75.2727 6.872 75.5967 6.48 75.8127 6.088C76.0367 5.688 76.1847 5.296 76.2567 4.912C76.3367 4.528 76.3767 4.16 76.3767 3.808C76.3767 3.16 76.2807 2.68 76.0887 2.368C75.8967 2.056 75.6287 1.9 75.2847 1.9C74.9327 1.9 74.6647 2.048 74.4807 2.344C74.2967 2.632 74.2047 3.028 74.2047 3.532C74.2047 3.708 74.2127 3.864 74.2287 4C74.2447 4.136 74.2687 4.26 74.3007 4.372H72.7527C72.7207 4.252 72.6967 4.136 72.6807 4.024C72.6647 3.904 72.6567 3.78 72.6567 3.652C72.6567 3.212 72.7647 2.828 72.9807 2.5C73.2047 2.164 73.5167 1.9 73.9167 1.708C74.3167 1.516 74.7887 1.42 75.3327 1.42C76.1727 1.42 76.8287 1.604 77.3007 1.972C77.7727 2.34 78.0087 2.888 78.0087 3.616C78.0087 4.12 77.8927 4.588 77.6607 5.02C77.4287 5.444 77.1087 5.86 76.7007 6.268C76.2927 6.676 75.8287 7.104 75.3087 7.552L74.0007 8.716L76.9287 8.632C77.2327 8.616 77.4807 8.528 77.6727 8.368C77.8647 8.208 77.9767 7.98 78.0087 7.684C78.1367 7.652 78.2647 7.652 78.3927 7.684L78.0687 10ZM85.9168 5.8C85.9168 6.736 85.7928 7.532 85.5448 8.188C85.2968 8.836 84.9368 9.332 84.4648 9.676C84.0008 10.012 83.4408 10.18 82.7848 10.18C82.1368 10.18 81.5768 10.012 81.1048 9.676C80.6408 9.332 80.2848 8.836 80.0368 8.188C79.7888 7.532 79.6648 6.736 79.6648 5.8C79.6648 4.856 79.7888 4.06 80.0368 3.412C80.2848 2.764 80.6408 2.272 81.1048 1.936C81.5768 1.592 82.1368 1.42 82.7848 1.42C83.4408 1.42 84.0008 1.592 84.4648 1.936C84.9368 2.272 85.2968 2.764 85.5448 3.412C85.7928 4.06 85.9168 4.856 85.9168 5.8ZM84.2848 5.8C84.2848 4.44 84.1608 3.452 83.9128 2.836C83.6728 2.212 83.2968 1.9 82.7848 1.9C82.2808 1.9 81.9048 2.212 81.6568 2.836C81.4168 3.452 81.2968 4.44 81.2968 5.8C81.2968 7.16 81.4168 8.152 81.6568 8.776C81.9048 9.392 82.2808 9.7 82.7848 9.7C83.2968 9.7 83.6728 9.392 83.9128 8.776C84.1608 8.152 84.2848 7.16 84.2848 5.8ZM92.7054 10H88.4454C88.2294 10 88.0174 10 87.8094 10C87.6094 10 87.3934 10.008 87.1614 10.024C87.1374 9.824 87.1374 9.624 87.1614 9.424L89.4774 7.264C89.9094 6.872 90.2334 6.48 90.4494 6.088C90.6734 5.688 90.8214 5.296 90.8934 4.912C90.9734 4.528 91.0134 4.16 91.0134 3.808C91.0134 3.16 90.9174 2.68 90.7254 2.368C90.5334 2.056 90.2654 1.9 89.9214 1.9C89.5694 1.9 89.3014 2.048 89.1174 2.344C88.9334 2.632 88.8414 3.028 88.8414 3.532C88.8414 3.708 88.8494 3.864 88.8654 4C88.8814 4.136 88.9054 4.26 88.9374 4.372H87.3894C87.3574 4.252 87.3334 4.136 87.3174 4.024C87.3014 3.904 87.2934 3.78 87.2934 3.652C87.2934 3.212 87.4014 2.828 87.6174 2.5C87.8414 2.164 88.1534 1.9 88.5534 1.708C88.9534 1.516 89.4254 1.42 89.9694 1.42C90.8094 1.42 91.4654 1.604 91.9374 1.972C92.4094 2.34 92.6454 2.888 92.6454 3.616C92.6454 4.12 92.5294 4.588 92.2974 5.02C92.0654 5.444 91.7454 5.86 91.3374 6.268C90.9294 6.676 90.4654 7.104 89.9454 7.552L88.6374 8.716L91.5654 8.632C91.8694 8.616 92.1174 8.528 92.3094 8.368C92.5014 8.208 92.6134 7.98 92.6454 7.684C92.7734 7.652 92.9014 7.652 93.0294 7.684L92.7054 10ZM100.121 9.58C100.153 9.724 100.153 9.872 100.121 10.024C99.6975 10.008 99.3295 10 99.0175 10C98.7055 10 98.4135 10 98.1415 10C97.8775 10 97.5855 10 97.2655 10C96.9535 10 96.5855 10.008 96.1615 10.024C96.1295 9.872 96.1295 9.724 96.1615 9.58H97.2895C97.3295 9.236 97.3575 8.892 97.3735 8.548C97.3975 8.196 97.4095 7.84 97.4095 7.48V3.352L94.7575 6.94H100.481C100.465 7.084 100.425 7.256 100.361 7.456C100.297 7.656 100.229 7.808 100.157 7.912H93.8575C93.8335 7.808 93.8175 7.708 93.8095 7.612C93.8015 7.508 93.7975 7.404 93.7975 7.3C93.9575 7.132 94.1015 6.96 94.2295 6.784C94.3655 6.608 94.4935 6.436 94.6135 6.268L97.2655 2.704C97.4335 2.472 97.5935 2.236 97.7455 1.996C97.9055 1.756 98.0295 1.544 98.1175 1.36C98.1975 1.344 98.2895 1.336 98.3935 1.336C98.5055 1.328 98.6135 1.328 98.7175 1.336C98.8215 1.336 98.9135 1.344 98.9935 1.36C98.9615 1.616 98.9335 1.9 98.9095 2.212C98.8935 2.516 98.8815 2.808 98.8735 3.088C98.8735 3.36 98.8735 3.584 98.8735 3.76V7.48C98.8735 7.84 98.8815 8.196 98.8975 8.548C98.9215 8.892 98.9535 9.236 98.9935 9.58H100.121Z" fill="#FEFEFE"/>
</svg>
