<svg width="40" height="40" viewBox="0 0 40 40" fill="none" xmlns="http://www.w3.org/2000/svg">
<g clip-path="url(#clip0_522_546)">
<path d="M28.0838 0H11.9162C5.34559 0 0 5.34559 0 11.9162V28.0838C0 34.6544 5.34559 40 11.9162 40H28.0838C34.6544 40 40 34.6544 40 28.0838V11.9162C39.9999 5.34559 34.6543 0 28.0838 0ZM35.976 28.0838C35.976 32.4425 32.4425 35.976 28.0838 35.976H11.9162C7.5575 35.976 4.024 32.4425 4.024 28.0838V11.9162C4.024 7.55743 7.5575 4.024 11.9162 4.024H28.0838C32.4425 4.024 35.976 7.55743 35.976 11.9162V28.0838Z" fill="#FEFEFE"/>
<path d="M20 9.65454C14.2955 9.65454 9.6546 14.2955 9.6546 19.9999C9.6546 25.7043 14.2955 30.3453 20 30.3453C25.7045 30.3453 30.3454 25.7044 30.3454 19.9999C30.3454 14.2954 25.7045 9.65454 20 9.65454ZM20 26.3214C16.5088 26.3214 13.6786 23.4912 13.6786 20C13.6786 16.5087 16.5088 13.6785 20 13.6785C23.4913 13.6785 26.3214 16.5087 26.3214 20C26.3214 23.4911 23.4912 26.3214 20 26.3214Z" fill="#FEFEFE"/>
<path d="M30.3654 12.2111C31.7346 12.2111 32.8444 11.1013 32.8444 9.73215C32.8444 8.36305 31.7346 7.25317 30.3654 7.25317C28.9963 7.25317 27.8865 8.36305 27.8865 9.73215C27.8865 11.1013 28.9963 12.2111 30.3654 12.2111Z" fill="#FEFEFE"/>
</g>
<defs>
<clipPath id="clip0_522_546">
<rect width="40" height="40" fill="white"/>
</clipPath>
</defs>
</svg>
