<svg width="40" height="40" viewBox="0 0 40 40" fill="none" xmlns="http://www.w3.org/2000/svg">
<g clip-path="url(#clip0_522_551)">
<path d="M40 7.59456C38.529 8.24634 36.9488 8.68675 35.2876 8.88581C36.9823 7.87114 38.2824 6.26093 38.8954 4.34426C37.3099 5.28502 35.5535 5.9685 33.6845 6.33492C32.187 4.74246 30.0555 3.74536 27.6949 3.74536C23.1639 3.74536 19.4891 7.42013 19.4891 11.9546C19.4894 12.583 19.5603 13.2094 19.7005 13.822C12.8777 13.4784 6.83342 10.2106 2.78517 5.24626C2.08059 6.4618 1.67532 7.87114 1.67532 9.37204C1.67532 12.2188 3.12523 14.7327 5.32546 16.2037C4.02233 16.1622 2.74796 15.8101 1.6084 15.1767V15.2824C1.6084 19.2583 4.43586 22.5756 8.19168 23.3296C7.48693 23.5197 6.76009 23.6157 6.03013 23.615C5.51177 23.6154 4.99452 23.567 4.48522 23.4705C5.52986 26.7295 8.55991 29.1042 12.1519 29.1676C9.34202 31.3697 5.80291 32.6821 1.95897 32.6821C1.29659 32.6821 0.642997 32.6434 0 32.5676C3.63257 34.8984 7.94508 36.2547 12.5782 36.2547C27.6755 36.2547 35.9288 23.7505 35.9288 12.9059C35.9288 12.5536 35.92 12.1977 35.9041 11.8454C37.5073 10.6862 38.8989 9.24344 39.9964 7.59981L40 7.59456Z" fill="#FEFEFE"/>
</g>
<defs>
<clipPath id="clip0_522_551">
<rect width="40" height="40" fill="white"/>
</clipPath>
</defs>
</svg>
