<svg width="19" height="22" viewBox="0 0 19 22" fill="none" xmlns="http://www.w3.org/2000/svg">
<path d="M14.5002 14C13.9999 13.9998 13.5047 14.1 13.0438 14.2947C12.5829 14.4894 12.1658 14.7746 11.8171 15.1334L7.49522 12.3556C7.83519 11.4838 7.83519 10.5161 7.49522 9.64433L11.8171 6.86651C12.4663 7.5315 13.3392 7.93175 14.2668 7.98967C15.1943 8.04758 16.1103 7.75903 16.8371 7.17996C17.564 6.6009 18.0499 5.77257 18.2007 4.85557C18.3516 3.93857 18.1565 2.99823 17.6534 2.21686C17.1503 1.4355 16.375 0.86877 15.4778 0.626559C14.5806 0.384349 13.6254 0.48391 12.7975 0.90594C11.9695 1.32797 11.3277 2.0424 10.9966 2.91072C10.6655 3.77904 10.6685 4.73939 11.0052 5.60558L6.68335 8.38339C6.16291 7.84908 5.49496 7.48212 4.76489 7.3294C4.03481 7.17668 3.27578 7.24515 2.58481 7.52605C1.89385 7.80695 1.30235 8.28752 0.885924 8.90633C0.469499 9.52514 0.24707 10.2541 0.24707 11C0.24707 11.7458 0.469499 12.4748 0.885924 13.0936C1.30235 13.7124 1.89385 14.193 2.58481 14.4739C3.27578 14.7548 4.03481 14.8232 4.76489 14.6705C5.49496 14.5178 6.16291 14.1508 6.68335 13.6165L11.0052 16.3943C10.7157 17.1411 10.6729 17.9609 10.883 18.7338C11.0931 19.5066 11.5451 20.1919 12.1729 20.6893C12.8006 21.1866 13.5712 21.4699 14.3716 21.4977C15.172 21.5255 15.9603 21.2962 16.621 20.8436C17.2818 20.3909 17.7802 19.7386 18.0434 18.9822C18.3066 18.2258 18.3206 17.4049 18.0836 16.6399C17.8465 15.8749 17.3707 15.2059 16.7259 14.7308C16.0811 14.2558 15.3011 13.9997 14.5002 14ZM14.5002 1.99995C14.9452 1.99995 15.3802 2.13191 15.7503 2.37914C16.1203 2.62638 16.4087 2.97778 16.579 3.38891C16.7493 3.80005 16.7938 4.25245 16.707 4.6889C16.6202 5.12536 16.4059 5.52627 16.0912 5.84094C15.7765 6.15561 15.3756 6.3699 14.9392 6.45672C14.5027 6.54354 14.0503 6.49898 13.6392 6.32868C13.2281 6.15838 12.8767 5.87 12.6294 5.49998C12.3822 5.12997 12.2502 4.69496 12.2502 4.24995C12.2502 3.65321 12.4873 3.08092 12.9092 2.65896C13.3312 2.237 13.9035 1.99995 14.5002 1.99995ZM4.00023 13.25C3.55522 13.25 3.1202 13.118 2.75019 12.8708C2.38018 12.6235 2.09179 12.2721 1.9215 11.861C1.7512 11.4499 1.70664 10.9975 1.79346 10.561C1.88028 10.1245 2.09457 9.72363 2.40924 9.40896C2.7239 9.09429 3.12481 8.88 3.56127 8.79318C3.99773 8.70637 4.45013 8.75093 4.86126 8.92122C5.2724 9.09152 5.6238 9.37991 5.87103 9.74992C6.11827 10.1199 6.25023 10.5549 6.25023 11C6.25023 11.5967 6.01317 12.169 5.59122 12.5909C5.16926 13.0129 4.59696 13.25 4.00023 13.25ZM14.5002 20C14.0552 20 13.6202 19.868 13.2502 19.6208C12.8802 19.3735 12.5918 19.0221 12.4215 18.611C12.2512 18.1999 12.2066 17.7475 12.2935 17.311C12.3803 16.8745 12.5946 16.4736 12.9092 16.159C13.2239 15.8443 13.6248 15.63 14.0613 15.5432C14.4977 15.4564 14.9501 15.5009 15.3613 15.6712C15.7724 15.8415 16.1238 16.1299 16.371 16.4999C16.6183 16.8699 16.7502 17.3049 16.7502 17.75C16.7502 18.3467 16.5132 18.919 16.0912 19.3409C15.6693 19.7629 15.097 20 14.5002 20Z" fill="#252525"/>
</svg>
