<svg width="48" height="48" viewBox="0 0 48 48" fill="none" xmlns="http://www.w3.org/2000/svg">
<rect width="48" height="48" rx="8" fill="#FCFCFC"/>
<path d="M33.6497 32.625C33.5838 32.739 33.4891 32.8337 33.3751 32.8996C33.261 32.9654 33.1317 33 33 33H15C14.8684 32.9999 14.7392 32.9651 14.6253 32.8992C14.5114 32.8334 14.4168 32.7387 14.3511 32.6247C14.2853 32.5107 14.2507 32.3814 14.2508 32.2498C14.2508 32.1182 14.2855 31.989 14.3512 31.875C15.7791 29.4066 17.9794 27.6366 20.5472 26.7975C19.277 26.0414 18.2902 24.8892 17.7382 23.5179C17.1863 22.1467 17.0997 20.6321 17.4918 19.2069C17.8839 17.7817 18.733 16.5246 19.9088 15.6286C21.0845 14.7327 22.5218 14.2475 24 14.2475C25.4782 14.2475 26.9155 14.7327 28.0912 15.6286C29.2669 16.5246 30.1161 17.7817 30.5082 19.2069C30.9003 20.6321 30.8137 22.1467 30.2618 23.5179C29.7098 24.8892 28.723 26.0414 27.4528 26.7975C30.0206 27.6366 32.2209 29.4066 33.6487 31.875C33.7147 31.9889 33.7495 32.1182 33.7497 32.2499C33.7499 32.3815 33.7154 32.5109 33.6497 32.625Z" fill="#070707"/>
</svg>
