<svg width="48" height="48" viewBox="0 0 48 48" fill="none" xmlns="http://www.w3.org/2000/svg">
<rect width="48" height="48" rx="8" fill="#070707"/>
<path d="M34.5 24C34.5024 24.3076 34.4089 24.6083 34.2324 24.8604C34.056 25.1124 33.8055 25.3032 33.5156 25.4062L27.5681 27.5691L25.4062 33.5156C25.2997 33.8027 25.1078 34.0503 24.8565 34.2251C24.6051 34.3999 24.3062 34.4936 24 34.4936C23.6938 34.4936 23.3949 34.3999 23.1435 34.2251C22.8922 34.0503 22.7003 33.8027 22.5937 33.5156L20.4319 27.5681L14.4844 25.4062C14.1973 25.2997 13.9497 25.1078 13.7749 24.8565C13.6001 24.6051 13.5063 24.3062 13.5063 24C13.5063 23.6938 13.6001 23.3949 13.7749 23.1435C13.9497 22.8922 14.1973 22.7003 14.4844 22.5937L20.4319 20.4319L22.5937 14.4844C22.7003 14.1973 22.8922 13.9497 23.1435 13.7749C23.3949 13.6001 23.6938 13.5063 24 13.5063C24.3062 13.5063 24.6051 13.6001 24.8565 13.7749C25.1078 13.9497 25.2997 14.1973 25.4062 14.4844L27.5691 20.4319L33.5156 22.5937C33.8055 22.6968 34.056 22.8876 34.2324 23.1396C34.4089 23.3916 34.5024 23.6924 34.5 24Z" fill="#FCFCFC"/>
</svg>
