<svg width="48" height="48" viewBox="0 0 48 48" fill="none" xmlns="http://www.w3.org/2000/svg">
<rect width="48" height="48" rx="8" fill="#070707"/>
<path d="M33.75 24V31.5C33.75 32.4946 33.3549 33.4484 32.6517 34.1516C31.9484 34.8549 30.9946 35.25 30 35.25H24.75C24.5511 35.25 24.3603 35.171 24.2197 35.0303C24.079 34.8897 24 34.6989 24 34.5C24 34.3011 24.079 34.1103 24.2197 33.9697C24.3603 33.829 24.5511 33.75 24.75 33.75H30C30.5967 33.75 31.169 33.5129 31.591 33.091C32.0129 32.669 32.25 32.0967 32.25 31.5H30C29.4033 31.5 28.831 31.2629 28.409 30.841C27.9871 30.419 27.75 29.8467 27.75 29.25V25.5C27.75 24.9033 27.9871 24.331 28.409 23.909C28.831 23.487 29.4033 23.25 30 23.25H32.2172C32.0753 21.6909 31.4926 20.2043 30.5374 18.964C29.5821 17.7236 28.2936 16.7807 26.8225 16.2453C25.3513 15.7099 23.7581 15.6042 22.2291 15.9405C20.7001 16.2767 19.2983 17.0411 18.1875 18.1444C16.8062 19.5074 15.9543 21.3169 15.7838 23.25H18C18.5967 23.25 19.169 23.487 19.591 23.909C20.0129 24.331 20.25 24.9033 20.25 25.5V29.25C20.25 29.8467 20.0129 30.419 19.591 30.841C19.169 31.2629 18.5967 31.5 18 31.5H16.5C15.9033 31.5 15.331 31.2629 14.909 30.841C14.4871 30.419 14.25 29.8467 14.25 29.25V24C14.2521 22.0686 14.8271 20.1813 15.9023 18.577C16.9775 16.9726 18.5046 15.7232 20.2901 14.9871C22.0757 14.251 24.0395 14.0611 25.933 14.4416C27.8265 14.822 29.5646 15.7557 30.9272 17.1244C31.8268 18.0284 32.5393 19.1011 33.0237 20.2809C33.5081 21.4608 33.7549 22.7246 33.75 24Z" fill="#FCFCFC"/>
</svg>
